<?xml version="1.0" encoding="UTF-8" standalone="no"?><!-- Generator: Gravit.io --><svg xmlns="http://www.w3.org/2000/svg" xmlns:xlink="http://www.w3.org/1999/xlink" style="isolation:isolate" viewBox="0 0 100 100" width="100pt" height="100pt"><defs><clipPath id="_clipPath_MVljgIYXyu4QscE2OhHx5ftdvQ3p9H6C"><rect width="100" height="100"/></clipPath></defs><g clip-path="url(#_clipPath_MVljgIYXyu4QscE2OhHx5ftdvQ3p9H6C)"><rect width="100" height="100" style="fill:rgb(74,74,74)" fill-opacity="0"/><rect x="58.546" y="35.67" width="27.909" height="28.66" transform="matrix(0.707,-0.707,0.707,0.707,-14.121,65.91)" fill="rgb(0,195,255)"/><rect x="13.546" y="35.67" width="27.909" height="28.66" transform="matrix(0.707,-0.707,0.707,0.707,-27.301,34.09)" fill="rgb(0,195,255)"/><rect x="35.692" y="58.523" width="28.615" height="27.953" transform="matrix(-0.707,-0.707,0.707,-0.707,34.09,159.121)" fill="rgb(100,219,255)"/><g><rect x="35.858" y="58.358" width="28.284" height="28.284" transform="matrix(0.707,-0.707,0.707,0.707,-36.621,56.59)" fill="rgb(255,208,0)"/><path d=" M 40.808 83.308 L 50 92.5 L 59.192 83.308 L 40.808 83.308 Z " fill="rgb(255,255,255)"/><path d=" M 32.322 74.822 L 36.565 79.065 L 63.435 79.065 L 67.678 74.822 L 32.322 74.822 Z " fill="rgb(255,255,255)"/><path d=" M 35.657 66.843 L 31.414 71.086 L 68.586 71.086 L 64.343 66.843 L 35.657 66.843 Z " fill="rgb(255,255,255)"/></g><rect x="35.858" y="13.358" width="28.284" height="28.284" transform="matrix(0.707,-0.707,0.707,0.707,-4.801,43.41)" fill="rgb(255,255,255)"/><path d="M 50.017 84.5 L 50.017 84.5 C 51.396 84.504 52.514 85.627 52.51 87.006 L 52.49 95.006 C 52.486 96.386 51.363 97.504 49.983 97.5 L 49.983 97.5 C 48.604 97.496 47.486 96.373 47.49 94.994 L 47.51 86.994 C 47.514 85.614 48.637 84.496 50.017 84.5 Z" style="stroke:none;fill:#FFFFFF;stroke-miterlimit:10;"/><g><path d="M 35.232 10.732 L 35.232 10.732 C 36.208 9.756 37.793 9.756 38.769 10.732 L 44.428 16.391 C 45.404 17.367 45.404 18.952 44.428 19.928 L 44.428 19.928 C 43.452 20.904 41.867 20.904 40.891 19.928 L 35.232 14.269 C 34.256 13.293 34.256 11.708 35.232 10.732 Z" style="stroke:none;fill:#FFFFFF;stroke-miterlimit:10;"/><path d="M 64.768 10.732 L 64.768 10.732 C 65.744 11.708 65.744 13.293 64.768 14.269 L 59.109 19.928 C 58.133 20.904 56.548 20.904 55.572 19.928 L 55.572 19.928 C 54.596 18.952 54.596 17.367 55.572 16.391 L 61.231 10.732 C 62.207 9.756 63.792 9.756 64.768 10.732 Z" style="stroke:none;fill:#FFFFFF;stroke-miterlimit:10;"/></g></g></svg>