<?xml version="1.0" encoding="UTF-8" standalone="no"?><!-- Generator: Gravit.io --><svg xmlns="http://www.w3.org/2000/svg" xmlns:xlink="http://www.w3.org/1999/xlink" style="isolation:isolate" viewBox="0 0 100 100" width="100pt" height="100pt"><g/><rect x="35.849" y="11.857" width="28.28" height="28.28" transform="matrix(0.707,-0.707,0.707,0.707,-3.741,42.962)" fill="rgb(0,0,0)"/><path d="M 53.738 18.198 L 61.428 10.508 C 62.279 9.657 63.661 9.657 64.512 10.508 L 64.962 10.958 C 65.813 11.809 65.813 13.191 64.962 14.042 L 57.272 21.732 C 56.421 22.583 55.039 22.583 54.188 21.732 L 53.738 21.282 C 52.887 20.431 52.887 19.049 53.738 18.198 Z" style="stroke:none;fill:#000000;stroke-miterlimit:10;"/><path d="M 38.788 10.788 L 48.402 20.402 C 49.333 21.332 49.333 22.842 48.402 23.772 L 48.272 23.902 C 47.342 24.833 45.832 24.833 44.902 23.902 L 35.288 14.288 C 34.357 13.358 34.357 11.848 35.288 10.918 L 35.418 10.788 C 36.348 9.857 37.858 9.857 38.788 10.788 Z" style="stroke:none;fill:#000000;stroke-miterlimit:10;"/><g><rect x="35.858" y="57.858" width="28.284" height="28.284" transform="matrix(0.707,-0.707,0.707,0.707,-36.267,56.444)" fill="rgb(255,208,0)"/><path d=" M 41 83 L 50 92 L 59 83 L 41 83 Z " fill="rgb(0,0,0)"/><path d=" M 32 74 L 37.071 79 L 63 79 L 68 74 L 32 74 Z " fill="rgb(0,0,0)"/><path d=" M 37.5 64.5 L 32 70 L 68 70 L 62.5 64.5 L 37.5 64.5 Z " fill="rgb(0,0,0)"/></g><rect x="12.858" y="34.858" width="28.284" height="28.284" transform="matrix(0.707,-0.707,0.707,0.707,-26.74,33.444)" fill="rgb(0,195,255)"/><rect x="58.858" y="34.858" width="28.284" height="28.284" transform="matrix(0.707,-0.707,0.707,0.707,-13.267,65.971)" fill="rgb(0,195,255)"/><path d="M 50 83 L 50 83 C 51.104 83 52 84.098 52 85.449 L 52 95.551 C 52 96.902 51.104 98 50 98 L 50 98 C 48.896 98 48 96.902 48 95.551 L 48 85.449 C 48 84.098 48.896 83 50 83 Z" style="stroke:none;fill:#000000;stroke-miterlimit:10;"/></svg>